<!--?xml version="1.0" encoding="utf-8"?-->
<svg viewBox="-90 -25 335 400" shape-rendering="geometricPrecision" text-rendering="geometricPrecision" xmlns="http://www.w3.org/2000/svg" width="335" height="400">
  <g transform="matrix(1, 0, 0, 1, -605.559998, -291.049988)">
    <g transform="translate(208.16 21.98)" stroke="#000">
      <path d="M463.97,282.74l4.2759-1.6245l5.6641,2.763l5.2716-2.4118l5.2734,2.8687l5.7629-2.7876l5.9052,1.3944l4.1206-2.7342c0,0-1.4972-8.6593-4.3239-9.7213-3.2823-1.2332-16.527-1.3151-16.527-1.3151s-14.448-.70483-16.308,1.5308c-1.8435,2.2164-3.1894,10.122-3.1894,10.122l4.0745,1.9158Zm-1.715-.10257c0,0-2.0185,8.5755-1.4081,11.363.37229,1.7003.9265,3.2664.89538,4.4347-.69091,25.937-4.9886,75.915-5.5002,77.962-.51164,2.0466-1.0233,9.7213-3.0699,13.303-2.0466,3.5815-8.8259,11.512-11.256,16.373-2.072,4.144-3.0699,8.698-3.5815,13.303-.51165,4.6048.51164,145.82.51164,145.82l2.0466,10.745c3.0699,4.0932,10.745,7.163,13.814,7.163c3.0699,0,31.722,1.0233,38.885,1.0233s17.396-.51165,22.001-4.0932c4.6048-3.5815,7.6747-7.6747,6.6514-12.28-1.0233-4.6048-1.0233-132-1.0233-135.59c0-3.5815.96044-13.478-1.0233-17.908-4.0473-9.0384-17.908-29.164-17.908-33.257c0-4.0932-5.1165-79.305-5.1165-82.375s1.5349-5.6281,1.5349-8.1863-1.0233-8.698-1.0233-8.698" fill="#61dafb" stroke-width="3.7" class="svg-elem-1"></path>
      <path d="m463.37 282.74 4.2759-1.6245 5.6641 2.763 5.2716-2.4118 5.2734 2.8687 5.7629-2.7876 5.9052 1.3944 4.1206-2.7342s-1.4972-8.6593-4.3239-9.7213c-3.2823-1.2332-16.527-1.3151-16.527-1.3151s-14.448-0.70483-16.308 1.5308c-1.8435 2.2164-3.1894 10.122-3.1894 10.122l4.0745 1.9158z" fill="#ccc" stroke-width="3.7" class="svg-elem-2"></path>
      <path transform="matrix(.51648-1.2246 1.2246 0.51648 257.34 628.09)" d="M195.56,66.431c11.284,19.255,2.2209,42.706-20.244,52.378-22.464,9.6722-49.823,1.9036-61.107-17.352-.18444-.31473-.3639-.63159-.53834-.95048l41.214-16.563Z" fill="#ccc" stroke-width="2.0181" class="svg-elem-3"></path>
      <path transform="matrix(.32488 -.77031 .77031 .32488 324.28 575.09)" d="m195.56 66.431c7.3325 12.565 6.2178 27.538-2.9185 39.202s-24.883 18.217-41.227 17.157-30.761-9.5702-37.745-22.28l41.21-16.566z" fill="#20232a" stroke-width="2.0181" class="svg-elem-4"></path>
    </g>
  </g>
  <ellipse style="fill: none; stroke: rgb(97, 218, 251); stroke-width: 1%;" cx="80" cy="163.296" rx="140" ry="179.264" class="svg-elem-5"></ellipse>
</svg>