<?xml version="1.0" encoding="iso-8859-1"?>
<!-- Uploaded to: SVG Repo, www.svgrepo.com, Generator: SVG Repo Mixer Tools -->
<!DOCTYPE svg PUBLIC "-//W3C//DTD SVG 1.1//EN" "http://www.w3.org/Graphics/SVG/1.1/DTD/svg11.dtd">
<svg fill="#000000" height="800px" width="800px" version="1.1" id="Capa_1" xmlns="http://www.w3.org/2000/svg" xmlns:xlink="http://www.w3.org/1999/xlink" 
	 viewBox="0 0 336.169 336.169" xml:space="preserve">
<g>
	<path d="M83.745,109.007h27.687c3.313,0,6-2.687,6-6s-2.687-6-6-6H83.745l19.578-19.578c2.343-2.343,2.343-6.142,0-8.484
		c-2.343-2.344-6.143-2.344-8.485,0L75.26,88.522V60.835c0-3.314-2.687-6-6-6s-6,2.686-6,6v27.688L43.682,68.944
		c-2.343-2.344-6.143-2.344-8.485,0c-2.343,2.343-2.343,6.142,0,8.484l19.578,19.578H27.086c-3.313,0-6,2.687-6,6s2.687,6,6,6
		h27.689l-19.578,19.578c-2.343,2.343-2.343,6.142,0,8.484c1.171,1.172,2.707,1.758,4.243,1.758c1.536,0,3.071-0.586,4.243-1.758
		l19.578-19.578v27.689c0,3.313,2.686,6,6,6s6-2.687,6-6v-27.689l19.578,19.578c1.171,1.172,2.707,1.758,4.243,1.758
		c1.536,0,3.071-0.586,4.243-1.758c2.343-2.343,2.343-6.142,0-8.484L83.745,109.007z"/>
	<path d="M335.953,26.958c-0.877-3.195-4.178-5.072-7.375-4.195L233.814,48.8c-2.259,0.62-3.949,2.498-4.33,4.81l-7.649,46.411
		h-83.391c-1.571-36.81-31.996-66.273-69.184-66.273C31.07,33.747,0,64.816,0,103.007c0,38.151,31.005,69.193,69.14,69.259
		l7.648,135.694c0.179,3.177,2.808,5.662,5.991,5.662h20.604c2.287,0,4.375-1.3,5.384-3.352c1.646-3.346,4.97-5.424,8.675-5.424
		c3.706,0,7.03,2.078,8.677,5.425c1.009,2.051,3.097,3.351,5.383,3.351h16.309c2.286,0,4.374-1.3,5.383-3.351
		c1.647-3.347,4.971-5.425,8.675-5.425c3.706,0,7.03,2.078,8.676,5.425c1.01,2.051,3.098,3.351,5.384,3.351h16.307
		c2.286,0,4.373-1.299,5.383-3.35c1.648-3.347,4.974-5.426,8.678-5.426c3.704,0,7.028,2.078,8.675,5.425
		c1.01,2.051,3.098,3.351,5.384,3.351h20.605c3.183,0,5.811-2.485,5.99-5.662l11.361-201.602c0.093-1.647-0.496-3.261-1.63-4.459
		c-1.134-1.199-2.71-1.879-4.36-1.879h-18.326l6.703-40.668l91.059-25.02C334.953,33.455,336.831,30.153,335.953,26.958z
		 M219.857,112.02l-7.666,46.512H110.615c14.647-10.938,24.82-27.531,27.299-46.512H219.857z M108.988,220.705
		c3.287-0.091,6.086,2.483,6.198,5.795l0.473,14.043c0.111,3.313-2.483,6.087-5.795,6.199c-0.068,0.002-0.137,0.003-0.206,0.003
		c-3.22,0-5.883-2.555-5.993-5.798l-0.473-14.043C103.082,223.592,105.676,220.817,108.988,220.705z M102.496,206.242l-1.023-30.344
		c-0.112-3.311,2.482-6.087,5.794-6.199c3.317-0.105,6.087,2.482,6.199,5.795l1.023,30.344c0.112,3.312-2.482,6.087-5.794,6.199
		c-0.069,0.002-0.138,0.003-0.206,0.003C105.268,212.04,102.605,209.485,102.496,206.242z M69.26,160.268
		c-31.573,0-57.26-25.688-57.26-57.262c0-31.573,25.687-57.26,57.26-57.26s57.26,25.687,57.26,57.26
		C126.52,134.581,100.833,160.268,69.26,160.268z M235.289,301.622h-11.584c-4.042-5.491-10.42-8.775-17.408-8.775
		c-6.987,0-13.366,3.284-17.409,8.775h-9.608c-4.042-5.491-10.42-8.775-17.41-8.775c-6.988,0-13.367,3.284-17.408,8.775h-9.609
		c-4.042-5.491-10.421-8.775-17.41-8.775c-6.989,0-13.368,3.284-17.409,8.775H88.451l-1.356-24.057h7.583l141.503,8.217
		L235.289,301.622z M245.974,112.02l-8.653,153.545H86.419l-5.317-94.33c2.804-0.486,5.553-1.131,8.232-1.943l5.788,81.979
		c0.222,3.142,2.835,5.577,5.985,5.577h121.529c3.149,0,5.764-2.436,5.985-5.577l6.092-86.316c0.117-1.661-0.461-3.296-1.596-4.514
		c-1.135-1.218-2.725-1.909-4.39-1.909h-4.374l7.666-46.512H245.974z"/>
</g>
</svg>