<?xml version="1.0" standalone="no"?>
<!DOCTYPE svg PUBLIC "-//W3C//DTD SVG 20010904//EN"
 "http://www.w3.org/TR/2001/REC-SVG-20010904/DTD/svg10.dtd">
<svg version="1.0" xmlns="http://www.w3.org/2000/svg"
 width="1226.000000pt" height="1280.000000pt" viewBox="0 0 1226.000000 1280.000000"
 preserveAspectRatio="xMidYMid meet">
<metadata>
Created by potrace 1.15, written by Peter Selinger 2001-2017
</metadata>
<g transform="translate(0.000000,1280.000000) scale(0.100000,-0.100000)"
fill="#000000" stroke="none">
<path d="M5495 12779 c-190 -22 -227 -31 -260 -66 -30 -33 -18 23 -169 -803
-69 -377 -128 -700 -132 -717 -6 -28 -12 -34 -48 -43 -173 -44 -446 -136 -626
-212 -112 -47 -407 -193 -468 -232 -23 -14 -46 -26 -51 -26 -6 0 -284 197
-619 438 -335 241 -623 444 -641 451 -66 28 -110 3 -361 -213 -143 -122 -482
-463 -615 -619 -121 -141 -149 -189 -140 -240 4 -19 173 -275 432 -652 233
-341 427 -625 429 -631 3 -6 -20 -53 -51 -105 -79 -132 -232 -441 -289 -584
-73 -183 -141 -385 -186 -557 -7 -27 -17 -48 -22 -48 -48 0 -1479 -234 -1504
-246 -18 -9 -41 -28 -50 -42 -39 -60 -70 -546 -60 -952 10 -449 18 -492 97
-533 20 -10 201 -47 429 -87 691 -121 1074 -191 1079 -195 2 -2 18 -62 36
-132 99 -383 277 -817 470 -1138 l65 -110 -18 -25 c-81 -109 -742 -1018 -804
-1103 -112 -156 -111 -168 47 -354 196 -232 674 -692 829 -797 61 -41 106 -36
191 21 70 47 1181 809 1200 823 6 4 51 -17 100 -46 208 -126 550 -280 821
-369 139 -46 429 -125 462 -125 9 0 22 -4 28 -8 7 -4 44 -209 83 -457 137
-860 152 -950 162 -1002 13 -66 57 -108 126 -120 26 -4 253 -8 503 -8 435 0
644 10 785 36 56 11 99 46 114 93 7 23 268 1408 284 1505 1 8 25 20 52 28 380
106 815 298 1150 507 76 48 145 84 152 81 8 -2 276 -195 597 -428 320 -233
591 -429 601 -434 78 -40 116 -21 294 140 232 211 480 477 678 729 94 121 117
164 108 211 -4 20 -180 283 -451 675 l-444 643 74 148 c170 338 302 708 367
1027 12 60 25 112 28 116 4 4 335 59 736 123 402 64 743 121 758 127 16 6 39
25 53 43 21 29 25 47 34 176 21 314 7 685 -40 1070 -25 197 -43 252 -94 275
-17 8 -370 76 -785 152 l-753 137 -43 130 c-92 284 -247 624 -404 884 -45 74
-81 136 -81 138 0 2 194 269 431 594 237 325 439 605 450 622 24 40 24 83 2
124 -56 101 -518 586 -733 769 -253 216 -307 254 -361 254 -45 0 -14 20 -746
-483 -326 -224 -595 -407 -598 -407 -4 0 -104 49 -223 108 -289 144 -475 218
-752 298 -85 25 -156 47 -158 48 -2 2 -55 334 -119 738 -69 440 -121 747 -131
767 -28 58 -58 72 -184 87 -335 38 -857 44 -1123 13z m624 -4249 c415 -32 776
-200 1062 -496 174 -181 293 -372 372 -601 272 -780 -77 -1629 -822 -2003 -96
-47 -280 -111 -391 -134 -347 -73 -724 -26 -1045 129 -448 217 -772 623 -881
1105 -104 459 -9 929 266 1323 84 119 259 295 379 380 227 161 506 267 777
296 114 12 134 12 283 1z"/>
</g>
</svg>
